,
  Hottest scene tracker on the net !!!   http://www.scenetime.com
 
         Please seed back after your download is completed

           Credit goes  to all seeders and  http://www.scenetime.com
 



...................................NFO:.................................................                                                                                                     
       
     
     
       
       
     
     
                                         
                                         
                EXVID                    
                                         
         
                                         
         Filled the Archives             
                                         
         
                                         
                With:                    
                                         
         
                                         
                                    
     E240                           
                                    
     SP               (C) 2009      
                                         
     
     
     
                                                                                  
                                                                                   
                Rodney.Dangerfield.Rodneys.Act.1995.DVDRip.XviD-EXViD               
                                                                                   
                                                                                  
     
                                                                                               
EXViD aims to iNTERNAL those releases which have been lost in the archives.
EXViD aims to PRE non-internal releases which have poor sources and are likely skipped by others.

Subtitles: None
Date: 2010.11

Rodney's Act - NEVER BEFORE SEEN or available. The Act is classic, uncensored, irreverent 
Rodney - just the way everyone loved him! Coming straight from Dangerfield's personal 
collection, Rodney wanted people to see this show. Now, thanks to Rodney's wife Joan - viewers 
can share in something that is truly extra-special and ultra rare! Now preserved on DVD, 
Rodney's Act will live on forever! 

General
Format                           : AVI
Format/Info                      : Audio Video Interleave
File size                        : 348 MiB
Duration                         : 48mn 2s
Overall bit rate                 : 1 014 Kbps
Writing application              : VirtualDubMod 1.5.10.2 (build 2542/release)
Writing library                  : VirtualDubMod build 2542/release

Video
ID                               : 0
Format                           : MPEG-4 Visual
Format profile                   : Advanced Simple@L5
Format settings, BVOP            : Yes
Format settings, QPel            : No
Format settings, GMC             : No warppoints
Format settings, Matrix          : Default (H.263)
Codec ID                         : XVID
Codec ID/Hint                    : XviD
Duration                         : 48mn 2s
Bit rate                         : 918 Kbps
Width                            : 608 pixels
Height                           : 320 pixels
Display aspect ratio             : 1.900
Frame rate                       : 23.976 fps
Resolution                       : 8 bits
Colorimetry                      : 4:2:0
Scan type                        : Progressive
Bits/(Pixel*Frame)               : 0.197
Stream size                      : 316 MiB (91%)
Writing library                  : XviD 1.2.1 (UTC 2008-12-04)

Audio
ID                               : 1
Format                           : MPEG Audio
Format version                   : Version 1
Format profile                   : Layer 3
Codec ID                         : 55
Codec ID/Hint                    : MP3
Duration                         : 48mn 2s
Bit rate mode                    : Variable
Bit rate                         : 83.0 Kbps
Minimum bit rate                 : 32.0 Kbps
Channel(s)                       : 1 channel
Sampling rate                    : 48.0 KHz
Stream size                      : 28.5 MiB (8%)
Alignment                        : Aligned on interleaves
Interleave, duration             : 24 ms (0.58 video frame)
Interleave, preload duration     : 494 ms
Writing library                  : LAME3.98r
Encoding settings                : -m m -V 4 -q 0 -lowpass 17.5 --vbr-new -b 32


Release notes:
enjoy!

Looking for:
75TB+ Archives
                                                                                                    
Greets: CRBS EPiSODE FiCO FLS iLS KLASSiGER LiPSYNC MADE NODLABS RUNNER TNAN       
   

                                                                    ASCII DONE BY XX^NFO 2oo9